<svg width="175" height="175" viewBox="0 0 175 175" fill="none" xmlns="http://www.w3.org/2000/svg">
<path d="M171.29 82.6588C168.271 77.3295 164.025 70.5196 157.975 65.1266C155.014 62.4869 151.814 60.3713 148.395 58.7797L148.57 58.7409L145.368 48.6037C142.14 38.3861 135.008 31.1353 125.284 28.1823C121.827 27.1342 118.633 26.796 116.181 26.7377C114.035 21.5194 110.736 16.9 106.238 12.7963C102.254 9.15843 96.4699 5.28211 92.3884 2.86426L87.5499 0L82.6588 2.77276C77.3295 5.79507 70.5168 10.0374 65.1238 16.0903C62.4842 19.0516 60.3685 22.2542 58.777 25.6702L58.7382 25.4955L48.6009 28.6981C38.3833 31.9256 31.1326 39.0571 28.1823 48.7812C27.1342 52.2388 26.796 55.433 26.7377 57.8841C21.5194 60.0303 16.9 63.3298 12.7963 67.8273C9.15843 71.8117 5.28211 77.5957 2.86426 81.68L0 86.5184L2.77276 91.4096C5.79507 96.7388 10.0374 103.552 16.0903 108.945C19.0516 111.584 22.2542 113.7 25.6702 115.291L25.4955 115.33L28.6981 125.467C31.9256 135.685 39.0571 142.936 48.7812 145.886C52.2388 146.934 55.4303 147.272 57.8841 147.331C60.0303 152.549 63.3298 157.168 67.8273 161.272C71.8145 164.91 77.5957 168.789 81.68 171.204L86.5184 174.068L91.4096 171.296C96.7388 168.276 103.549 164.031 108.942 157.981C111.581 155.019 113.697 151.82 115.289 148.401L115.327 148.576L125.465 145.373C135.682 142.146 142.933 135.014 145.886 125.29C146.934 121.832 147.272 118.638 147.331 116.187C152.549 114.041 157.166 110.741 161.272 106.244C164.91 102.257 168.789 96.4754 171.204 92.3912L174.068 87.5527L171.296 82.6615L171.29 82.6588ZM117.13 58.3389C117.169 58.3583 117.207 58.3805 117.246 58.3999C117.185 58.4248 117.127 58.4498 117.066 58.4747C117.085 58.4276 117.108 58.3832 117.127 58.3389H117.13ZM56.9359 115.721C56.897 115.702 56.8582 115.68 56.8194 115.66C56.8804 115.635 56.9386 115.61 56.9996 115.585C56.9802 115.63 56.958 115.677 56.9386 115.721H56.9359ZM58.3417 56.9331C58.3611 56.8943 58.3832 56.8554 58.4027 56.8139C58.4276 56.8749 58.4526 56.9331 58.4775 56.9941C58.4332 56.9747 58.386 56.9525 58.3417 56.9331ZM115.724 117.127C115.705 117.166 115.682 117.207 115.663 117.246C115.638 117.185 115.613 117.127 115.588 117.066C115.632 117.085 115.68 117.108 115.724 117.127Z" fill="#CAC294"/>
<path d="M157.702 86.9366C151.837 76.5847 144.486 66.8719 130.544 65.8727C121.523 65.2266 113.625 70.2295 106.659 74.6429C105.808 75.183 104.961 75.7197 104.12 76.2422C99.2904 79.2398 94.6829 81.863 91.4276 83.6601C89.5105 84.0732 88.0488 83.8332 86.5871 82.8269C84.7758 79.5328 81.9619 74.5475 78.7102 69.308C75.981 64.3086 75.3878 61.6995 75.1513 58.077C74.3498 45.8645 81.8878 40.6215 85.1536 38.9338C85.9374 40.0707 86.58 42.2491 89.6022 42.2491C92.4656 42.0019 94.4075 38.9338 92.9246 36.0175C92.2538 34.697 90.8662 33.8814 89.3869 33.8779C87.4309 33.8744 86.4564 34.7924 84.7758 35.961C81.6441 37.4192 71.3276 43.3895 72.302 58.2641C72.3126 58.4266 72.3268 58.5854 72.3373 58.7443C70.0001 54.2604 68.3759 49.5858 68.7361 44.5476C69.6152 32.2609 78.2512 25.4891 87.6321 20.0872C90.7179 21.962 94.9724 24.843 97.7863 27.4133C100.205 29.6199 104.018 35.1701 105.984 41.5077C90.1319 49.6176 97.4933 66.4623 97.5709 66.6353C97.578 66.653 97.5921 66.6636 97.5992 66.6812C97.6204 66.7271 97.638 66.7695 97.6663 66.8154C97.698 66.8648 97.7333 66.9037 97.7687 66.946C97.7863 66.9672 97.8004 66.9884 97.8181 67.0096C97.8993 67.1014 97.9911 67.1791 98.0935 67.2426C98.1111 67.2567 98.1323 67.2638 98.1535 67.2744C98.2418 67.3273 98.3336 67.3662 98.4289 67.398C98.4571 67.4085 98.4818 67.4156 98.5101 67.4262C98.6231 67.458 98.7431 67.4756 98.8596 67.4756C98.8667 67.4756 98.8702 67.4756 98.8773 67.4756C98.9091 67.4756 98.9408 67.4686 98.9726 67.465C99.0291 67.4615 99.0856 67.458 99.1456 67.4474C99.1845 67.4403 99.2197 67.4262 99.2586 67.4156C99.3151 67.4015 99.3716 67.3838 99.4245 67.3591C99.4387 67.3521 99.4528 67.3521 99.4634 67.345C99.4951 67.3309 99.5234 67.3097 99.5552 67.292C99.5834 67.2779 99.6152 67.2673 99.6434 67.2497C105.822 63.3271 109.293 58.0382 109.981 51.5418C111.016 52.8976 112.237 54.0662 113.653 55.0265C117.47 57.6145 121.883 58.2112 125.138 58.2112C127.8 58.2112 129.693 57.8122 129.859 57.7769C130.251 57.6922 130.59 57.445 130.791 57.0955C130.992 56.746 131.038 56.3329 130.918 55.948C126.243 41.144 112.887 40.5544 108.738 40.7415C106.609 33.8002 102.45 27.8017 99.7141 25.2984C96.5153 22.3786 91.6077 19.1092 88.3771 17.1991C87.9358 16.9378 87.3885 16.9343 86.9437 17.185C76.5918 23.0494 66.879 30.4002 65.8798 44.3428C65.2337 53.3671 70.2366 61.2617 74.6499 68.2277C75.1901 69.0785 75.7268 69.9259 76.2493 70.7662C79.2433 75.5926 81.8631 80.1931 83.6637 83.4483C84.0803 85.3725 83.8438 86.8377 82.8305 88.303C79.5364 90.1142 74.5581 92.9246 69.3222 96.1728C64.3192 98.902 61.7136 99.4951 58.0876 99.7317C46.7083 100.477 41.3735 93.9732 39.3328 90.4425C40.3249 89.5246 42.9517 89.0762 42.9517 85.7538C42.7046 82.8905 39.6364 80.9486 36.7201 82.4315C35.3996 83.1023 34.584 84.4899 34.5805 85.9692C34.5805 87.2191 34.9548 88.0664 35.5267 88.9526C35.5409 89.0409 35.5585 89.1291 35.5903 89.2174C35.6397 89.3586 40.4555 102.644 56.3258 102.644C56.9578 102.644 57.6075 102.623 58.2747 102.581C58.4372 102.57 58.5925 102.556 58.7514 102.546C54.2674 104.883 49.5893 106.507 44.5581 106.147C32.275 105.271 25.4997 96.6318 20.0978 87.2508C21.9725 84.165 24.8536 79.9106 27.4239 77.0967C29.6305 74.6782 35.1807 70.8651 41.5218 68.902C45.7091 77.0861 52.2267 79.095 57.5757 79.095C62.5821 79.095 66.5612 77.3544 66.6459 77.3156C66.6777 77.3014 66.7024 77.2803 66.7307 77.2661C66.7624 77.2485 66.7942 77.2379 66.8225 77.2202C66.833 77.2132 66.8436 77.2026 66.8542 77.1955C66.8966 77.1673 66.9354 77.132 66.9743 77.1002C67.0096 77.0719 67.0414 77.0437 67.0731 77.0119C67.1084 76.9766 67.1367 76.9413 67.1649 76.9025C67.1932 76.8672 67.2214 76.8319 67.2461 76.793C67.2709 76.7542 67.292 76.7154 67.3132 76.673C67.3344 76.6306 67.3556 76.5918 67.3732 76.5494C67.3909 76.507 67.4015 76.4611 67.4156 76.4188C67.4297 76.3764 67.4439 76.334 67.4509 76.2881C67.4615 76.2422 67.465 76.1963 67.4686 76.1504C67.4721 76.1045 67.4792 76.0622 67.4792 76.0163C67.4792 75.9704 67.4756 75.9245 67.4686 75.8821C67.465 75.8327 67.4615 75.7868 67.4509 75.7374C67.4439 75.695 67.4297 75.6526 67.4156 75.6138C67.4015 75.5644 67.3874 75.5149 67.3662 75.4655C67.3591 75.4514 67.3591 75.4408 67.3521 75.4267C67.3379 75.3949 67.3167 75.3702 67.3026 75.3384C67.285 75.3066 67.2744 75.2784 67.2567 75.2466C63.3342 69.068 58.0453 65.5973 51.5453 64.9088C52.9011 63.8744 54.0697 62.6528 55.0301 61.237C59.7294 54.3028 57.8617 45.4055 57.7769 45.0277C57.6922 44.6358 57.445 44.2969 57.0955 44.0956C56.746 43.8944 56.3294 43.8485 55.948 43.9685C41.144 48.6431 40.5509 61.9996 40.7415 66.1446C33.8002 68.2736 27.8017 72.4327 25.2984 75.1689C22.3786 78.3642 19.1127 83.2718 17.1991 86.5059C16.9378 86.9472 16.9343 87.4944 17.185 87.9393C23.0494 98.2912 30.4002 108.008 44.3428 109.003C44.8759 109.042 45.4055 109.06 45.928 109.06C54.2922 109.06 61.6712 104.385 68.2241 100.233C69.075 99.6928 69.9224 99.1562 70.7662 98.6337C75.5891 95.6397 80.1895 93.0234 83.4448 91.2228C85.3761 90.8062 86.8413 91.0569 88.31 92.0737C90.1213 95.3713 92.9317 100.342 96.1763 105.571C98.902 110.567 99.4951 113.176 99.7317 116.799C100.537 129.082 92.9034 134.318 89.6729 135.974C88.9138 134.816 88.2324 132.75 85.2807 132.75C82.4174 132.998 80.4755 136.066 81.9584 138.982C82.6292 140.302 84.0168 141.118 85.4961 141.122C87.6992 141.125 88.656 139.96 90.7921 138.579C94.5134 136.655 103.495 130.54 102.584 116.612C102.574 116.449 102.56 116.294 102.549 116.135C104.883 120.616 106.507 125.294 106.147 130.332C105.271 142.615 96.6318 149.387 87.2508 154.792C84.165 152.917 79.9106 150.036 77.0967 147.47C74.6782 145.263 70.8651 139.713 68.8985 133.375C84.7476 125.269 77.3897 108.421 77.312 108.248C77.2979 108.212 77.2767 108.184 77.2591 108.152C77.245 108.124 77.2344 108.096 77.2167 108.068C77.2096 108.057 77.1991 108.05 77.192 108.039C77.1602 107.99 77.1249 107.948 77.0861 107.905C77.0614 107.877 77.0366 107.849 77.0119 107.82C76.9696 107.778 76.9272 107.743 76.8813 107.711C76.8531 107.69 76.8283 107.665 76.7966 107.647C76.7471 107.616 76.6942 107.587 76.6412 107.563C76.613 107.549 76.5847 107.531 76.5565 107.52C76.5 107.496 76.44 107.478 76.3799 107.464C76.3517 107.457 76.3235 107.446 76.2952 107.443C76.2352 107.429 76.1716 107.425 76.1116 107.418C76.0798 107.418 76.0516 107.411 76.0233 107.411C75.9669 107.411 75.9104 107.414 75.8503 107.421C75.8115 107.425 75.7762 107.429 75.7374 107.436C75.6879 107.446 75.642 107.46 75.5961 107.474C75.5502 107.489 75.5043 107.503 75.4584 107.52C75.4443 107.527 75.4302 107.527 75.4196 107.534C75.3914 107.549 75.3631 107.566 75.3349 107.584C75.3031 107.602 75.2713 107.612 75.2395 107.633C69.0609 111.556 65.5903 116.845 64.9018 123.345C63.8673 121.989 62.6457 120.82 61.2299 119.86C54.2957 115.161 45.3949 117.032 45.0207 117.113C44.6288 117.198 44.2898 117.445 44.0886 117.795C43.8873 118.144 43.8414 118.557 43.9615 118.942C48.2901 132.648 60.0613 134.17 65.0748 134.17C65.4773 134.17 65.8303 134.159 66.141 134.145C68.27 141.086 72.4291 147.088 75.1689 149.588C78.3677 152.508 83.2718 155.777 86.5059 157.687C86.7318 157.822 86.9825 157.885 87.2332 157.885C87.4839 157.885 87.7204 157.825 87.9393 157.698C98.2912 151.834 108.008 144.483 109.003 130.54C109.649 121.516 104.646 113.618 100.233 106.655C99.6929 105.804 99.1562 104.957 98.6337 104.117C95.6397 99.2904 93.0199 94.6864 91.2193 91.4347C90.8062 89.5104 91.0428 88.0488 92.0561 86.58C95.3537 84.7688 100.332 81.9548 105.571 78.7031C110.571 75.9774 113.176 75.3843 116.799 75.1477C129.071 74.3463 134.314 81.976 135.97 85.2101C134.812 85.9692 132.747 86.6506 132.747 89.5987C132.994 92.4621 136.062 94.4039 138.978 92.9211C140.299 92.2502 141.115 90.8627 141.118 89.3833C141.122 87.1837 139.964 86.2269 138.587 84.105C136.676 80.3943 130.568 71.3876 116.612 72.2985C116.449 72.3091 116.287 72.3232 116.128 72.3338C120.608 69.9965 125.283 68.3724 130.328 68.7325C142.615 69.6117 149.387 78.2477 154.789 87.6286C152.914 90.7144 150.033 94.9688 147.466 97.7828C145.256 100.201 139.709 104.014 133.372 105.981C125.265 90.1283 108.417 97.4897 108.244 97.5674C108.212 97.5815 108.188 97.6027 108.159 97.6168C108.128 97.6345 108.096 97.6451 108.068 97.6627C108.053 97.6698 108.046 97.6804 108.032 97.691C107.99 97.7192 107.951 97.751 107.912 97.7863C107.877 97.8145 107.842 97.8428 107.81 97.8746C107.778 97.9099 107.75 97.9452 107.718 97.9805C107.69 98.0158 107.658 98.0546 107.633 98.0935C107.609 98.1288 107.591 98.1676 107.57 98.2065C107.549 98.2488 107.524 98.2912 107.506 98.3336C107.489 98.3759 107.478 98.4183 107.464 98.4607C107.45 98.5066 107.436 98.5489 107.429 98.5948C107.418 98.6407 107.414 98.6866 107.411 98.7325C107.407 98.7784 107.4 98.8243 107.4 98.8702C107.4 98.9161 107.404 98.962 107.411 99.0079C107.414 99.0538 107.418 99.1032 107.429 99.1491C107.436 99.1915 107.45 99.2339 107.464 99.2762C107.478 99.3257 107.492 99.3751 107.513 99.421C107.52 99.4351 107.52 99.4492 107.527 99.4634C107.542 99.4951 107.563 99.5199 107.577 99.5481C107.594 99.5799 107.605 99.6116 107.623 99.6399C111.545 105.819 116.834 109.289 123.334 109.978C121.978 111.012 120.81 112.234 119.849 113.65C115.15 120.587 117.018 129.481 117.099 129.859C117.184 130.251 117.431 130.59 117.78 130.791C117.999 130.918 118.246 130.985 118.497 130.985C118.642 130.985 118.787 130.964 118.928 130.918C133.739 126.243 134.325 112.88 134.134 108.735C141.076 106.602 147.074 102.45 149.574 99.714C152.494 96.5188 155.76 91.6112 157.673 88.3771C157.935 87.9358 157.938 87.3885 157.687 86.9437L157.702 86.9366ZM107.171 50.8886C106.715 56.0999 104.163 60.439 99.5834 63.8143C99.0715 62.1549 98.443 59.4081 98.6584 56.3717C99.0291 51.1252 101.73 47.0967 106.68 44.3675C106.722 44.537 106.768 44.6994 106.814 44.8688C107.188 46.8672 107.347 48.9009 107.174 50.8921L107.171 50.8886ZM127.624 55.2101C124.958 55.482 119.535 55.5667 115.238 52.6469C112.481 50.7721 110.592 47.9158 109.586 44.1521C109.547 43.9509 109.512 43.7496 109.469 43.5519C113.335 43.4354 123.313 44.258 127.624 55.2137V55.2101ZM50.8957 67.7122C56.1069 68.1676 60.4461 70.7238 63.8214 75.2996C62.162 75.8115 59.4187 76.44 56.3788 76.2246C51.1322 75.8539 47.1038 73.1529 44.3746 68.2029C44.537 68.1641 44.6958 68.1182 44.8547 68.0758C46.8601 67.6981 48.8973 67.5392 50.8957 67.7122ZM55.2172 47.2626C55.4891 49.9247 55.5773 55.3514 52.6539 59.6517C50.7792 62.4056 47.9229 64.2945 44.1627 65.3007C43.9579 65.3396 43.7567 65.3749 43.5519 65.4208C43.4213 61.5547 44.2192 51.5877 55.2172 47.2626ZM67.7157 123.991C68.1712 118.78 70.7274 114.44 75.3031 111.065C75.815 112.725 76.44 115.471 76.2281 118.508C75.8574 123.754 73.1565 127.783 68.2065 130.512C68.1641 130.342 68.1182 130.177 68.0723 130.011C67.6981 128.012 67.5392 125.982 67.7157 123.991ZM47.2662 119.669C49.9283 119.401 55.3549 119.309 59.6552 122.233C62.4127 124.107 64.298 126.964 65.3043 130.727C65.3431 130.929 65.3784 131.13 65.4208 131.328C61.5512 131.444 51.5771 130.621 47.2662 119.669ZM123.998 107.167C118.787 106.712 114.447 104.156 111.072 99.5799C112.728 99.0679 115.475 98.4395 118.518 98.6548C123.765 99.0256 127.793 101.727 130.523 106.676C130.353 106.719 130.194 106.765 130.028 106.807C128.026 107.181 125.993 107.34 123.998 107.167ZM119.676 127.617C119.405 124.955 119.316 119.532 122.24 115.231C124.107 112.484 126.953 110.599 130.699 109.589C130.911 109.547 131.126 109.519 131.338 109.473C131.455 113.353 130.621 123.309 119.68 127.617H119.676Z" fill="#632633"/>
</svg>
